<svg xmlns="http://www.w3.org/2000/svg" xmlns:svg="http://www.w3.org/2000/svg" id="svg2" width="744.094" height="1052.362" version="1.1"><defs id="defs4"><marker id="Arrow2Mend" orient="auto" refX="0" refY="0" style="overflow:visible"><path id="path3733" d="M 8.7185878,4.0337352 L -2.2072895,0.016013256 L 8.7185884,-4.0017078 C 6.9730900,-1.6296469 6.9831476,1.6157441 8.7185878,4.0337352 z" transform="scale(0.6) rotate(180) translate(0,0)" style="font-size:12;fill-rule:evenodd;stroke-width:.625;stroke-linejoin:round"/></marker><marker id="Arrow1Lend" orient="auto" refX="0" refY="0" style="overflow:visible"><path id="path3709" d="M 0.0,0.0 L 5.0,-5.0 L -12.5,0.0 L 5.0,5.0 L 0.0,0.0 z" transform="scale(0.8) rotate(180) translate(12.5,0)" style="fill-rule:evenodd;stroke:#000;stroke-width:1pt;marker-start:none"/></marker><marker id="Arrow1Lend2" orient="auto" refX="0" refY="0" style="overflow:visible"><path id="path4160" d="M 0.0,0.0 L 5.0,-5.0 L -12.5,0.0 L 5.0,5.0 L 0.0,0.0 z" transform="scale(0.8) rotate(180) translate(12.5,0)" style="marker-start:none;stroke:red;stroke-width:1pt;fill:red;fill-rule:evenodd"/></marker><marker id="Arrow1Lend2-3" orient="auto" refX="0" refY="0" style="overflow:visible"><path id="path4160-4" d="M 0,0 5,-5 -12.5,0 5,5 0,0 z" transform="matrix(-0.8,0,0,-0.8,-10,0)" style="fill:red;fill-rule:evenodd;stroke:red;stroke-width:1pt;marker-start:none"/></marker><marker id="Arrow1Lend2-5" orient="auto" refX="0" refY="0" style="overflow:visible"><path id="path4160-1" d="M 0,0 5,-5 -12.5,0 5,5 0,0 z" transform="matrix(-0.8,0,0,-0.8,-10,0)" style="fill:red;fill-rule:evenodd;stroke:red;stroke-width:1pt;marker-start:none"/></marker><marker id="Arrow1Lend2U" orient="auto" refX="0" refY="0" style="overflow:visible"><path id="path4306" d="M 0.0,0.0 L 5.0,-5.0 L -12.5,0.0 L 5.0,5.0 L 0.0,0.0 z" transform="scale(0.8) rotate(180) translate(12.5,0)" style="fill-rule:evenodd;marker-start:none;stroke:#0f0;stroke-width:1pt;fill:#0f0"/></marker><marker id="Arrow1Lend2-8" orient="auto" refX="0" refY="0" style="overflow:visible"><path id="path4160-7" d="M 0,0 5,-5 -12.5,0 5,5 0,0 z" transform="matrix(-0.8,0,0,-0.8,-10,0)" style="fill:red;fill-rule:evenodd;stroke:red;stroke-width:1pt;marker-start:none"/></marker><marker id="Arrow1Lend2W" orient="auto" refX="0" refY="0" style="overflow:visible"><path id="path4430" d="M 0.0,0.0 L 5.0,-5.0 L -12.5,0.0 L 5.0,5.0 L 0.0,0.0 z" transform="scale(0.8) rotate(180) translate(12.5,0)" style="fill-rule:evenodd;marker-start:none;stroke:#0f0;stroke-width:1pt;fill:#0f0"/></marker><marker id="Arrow1Lend2Uq" orient="auto" refX="0" refY="0" style="overflow:visible"><path id="path4433" d="M 0.0,0.0 L 5.0,-5.0 L -12.5,0.0 L 5.0,5.0 L 0.0,0.0 z" transform="scale(0.8) rotate(180) translate(12.5,0)" style="marker-start:none;stroke:red;stroke-width:1pt;fill:red;fill-rule:evenodd"/></marker><marker id="Arrow1Lend2T" orient="auto" refX="0" refY="0" style="overflow:visible"><path id="path4436" d="M 0.0,0.0 L 5.0,-5.0 L -12.5,0.0 L 5.0,5.0 L 0.0,0.0 z" transform="scale(0.8) rotate(180) translate(12.5,0)" style="fill-rule:evenodd;marker-start:none;stroke:#00f;stroke-width:1pt;fill:#00f"/></marker><marker id="Arrow1Lend2Wh" orient="auto" refX="0" refY="0" style="overflow:visible"><path id="path6517" d="M 0.0,0.0 L 5.0,-5.0 L -12.5,0.0 L 5.0,5.0 L 0.0,0.0 z" transform="scale(0.8) rotate(180) translate(12.5,0)" style="marker-start:none;stroke:#008c00;stroke-width:1pt;fill:#008c00;fill-rule:evenodd"/></marker><marker id="Arrow1Lend2Whr" orient="auto" refX="0" refY="0" style="overflow:visible"><path id="path8029" d="M 0.0,0.0 L 5.0,-5.0 L -12.5,0.0 L 5.0,5.0 L 0.0,0.0 z" transform="scale(0.8) rotate(180) translate(12.5,0)" style="fill-rule:evenodd;marker-start:none;stroke:#145914;stroke-width:1pt;fill:#145914"/></marker><marker id="Arrow1Lend2WhrR" orient="auto" refX="0" refY="0" style="overflow:visible"><path id="path8280" d="M 0.0,0.0 L 5.0,-5.0 L -12.5,0.0 L 5.0,5.0 L 0.0,0.0 z" transform="scale(0.8) rotate(180) translate(12.5,0)" style="marker-start:none;stroke:#146f14;stroke-width:1pt;fill:#146f14;fill-rule:evenodd"/></marker></defs><metadata id="metadata7"/><g id="layer1"><g style="fill:none;stroke:#000;stroke-width:1;stroke-miterlimit:4;stroke-opacity:1;stroke-dasharray:none;stroke-dashoffset:0" id="g2816"><path id="path2822" d="m 276.3087,322.82052 -109.70941,63.34075 18.19523,10.50502 109.70941,-63.34075 z" style="fill:#8686bf;fill-rule:evenodd;stroke:#000;stroke-width:1;stroke-miterlimit:4;stroke-opacity:1;stroke-dasharray:none"/><path id="path2818" d="m 276.3087,322.82052 18.19523,10.50502 0,-43.74281 -18.19523,-10.50502 z" style="fill:#353564;fill-rule:evenodd;stroke:#000;stroke-width:1;stroke-miterlimit:4;stroke-opacity:1;stroke-dasharray:none"/><path id="path2820" d="m 276.3087,322.82052 -109.70941,63.34075 0,-43.74281 109.70941,-63.34075 z" style="fill:#4d4d9f;fill-rule:evenodd;stroke:#000;stroke-width:1;stroke-miterlimit:4;stroke-opacity:1;stroke-dasharray:none"/><path id="path2826" d="m 294.50393,333.32554 -109.70941,63.34075 0,-43.74281 109.70941,-63.34075 z" style="fill:#afafde;fill-rule:evenodd;stroke:#000;stroke-width:1;stroke-miterlimit:4;stroke-opacity:1;stroke-dasharray:none"/><path id="path2824" d="m 166.59929,386.16127 18.19523,10.50502 0,-43.74281 -18.19523,-10.50502 z" style="fill:#d7d7ff;fill-rule:evenodd;stroke:#000;stroke-width:1;stroke-miterlimit:4;stroke-opacity:1;stroke-dasharray:none"/><path id="path2828" d="m 276.3087,279.07771 -109.70941,63.34075 18.19523,10.50502 109.70941,-63.34075 z" style="fill:#e9e9ff;fill-rule:evenodd;stroke:#000;stroke-width:1;stroke-miterlimit:4;stroke-opacity:1;stroke-dasharray:none"/></g><path style="fill:none;stroke:#000;stroke-width:4.91616058;stroke-miterlimit:4;stroke-opacity:1;stroke-dasharray:none;stroke-dashoffset:0" id="path2832" d="m 301.02132,528.22262 a 36.460194,36.460194 0 0 1 56.93665,-45.47496" transform="matrix(0.20341077,-0.11743871,0,0.20341077,203.32922,260.48884)"/><path style="fill:#969696;fill-opacity:1;stroke:#000;stroke-width:4.91616058;stroke-miterlimit:4;stroke-opacity:1;stroke-dasharray:none;stroke-dashoffset:0" id="path2832-0" d="m 366.81163,506.56415 a 36.460194,36.460194 0 1 1 -72.92038,0 36.460194,36.460194 0 1 1 72.92038,0 z" transform="matrix(0.20341077,-0.11743871,0,0.20341077,216.01427,267.97508)"/><path style="fill:none;stroke:#000;stroke-width:1;stroke-linecap:butt;stroke-linejoin:miter;stroke-miterlimit:4;stroke-opacity:1;stroke-dasharray:none" id="path3628" d="m 275.72505,316.5193 13.34955,7.70736"/><path style="fill:none;stroke:#000;stroke-width:1;stroke-linecap:butt;stroke-linejoin:miter;stroke-miterlimit:4;stroke-opacity:1;stroke-dasharray:none" id="path3628-5" d="m 264.68329,332.654 13.34956,7.70737"/><path style="fill:none;stroke:#000;stroke-width:4.91616058;stroke-miterlimit:4;stroke-opacity:1;stroke-dasharray:none;stroke-dashoffset:0" id="path2832-7" d="m 301.02132,528.22262 a 36.460194,36.460194 0 0 1 56.93665,-45.47496" transform="matrix(0.20341077,-0.11743871,0,0.20341077,143.47395,295.98382)"/><path style="fill:#969696;fill-opacity:1;stroke:#000;stroke-width:4.91616058;stroke-miterlimit:4;stroke-opacity:1;stroke-dasharray:none;stroke-dashoffset:0" id="path2832-0-0" d="m 366.81163,506.56415 a 36.460194,36.460194 0 1 1 -72.92038,0 36.460194,36.460194 0 1 1 72.92038,0 z" transform="matrix(0.20341077,-0.11743871,0,0.20341077,156.15901,303.47006)"/><path style="fill:none;stroke:#000;stroke-width:1;stroke-linecap:butt;stroke-linejoin:miter;stroke-miterlimit:4;stroke-opacity:1;stroke-dasharray:none" id="path3628-1" d="m 215.86979,352.01428 13.34955,7.70737"/><path style="fill:none;stroke:#000;stroke-width:1;stroke-linecap:butt;stroke-linejoin:miter;stroke-miterlimit:4;stroke-opacity:1;stroke-dasharray:none" id="path3628-5-1" d="m 204.82803,368.14898 13.34955,7.70737"/><path style="fill:none;stroke:#00f;stroke-width:1;stroke-linecap:butt;stroke-linejoin:miter;stroke-miterlimit:4;stroke-opacity:1;stroke-dasharray:none;marker-end:url(#Arrow1Lend2T)" id="path3701" d="m 284.17077,333.01784 29.0667,16.78166"/><path style="fill:none;stroke:red;stroke-width:1;stroke-linecap:butt;stroke-linejoin:miter;stroke-miterlimit:4;stroke-opacity:1;stroke-dasharray:none;marker-end:url(#Arrow1Lend2Uq)" id="path3701-2" d="m 285.22266,333.20729 -29.0667,16.78166"/><path style="stroke-linejoin:miter;marker-end:url(#Arrow1Lend2WhrR);stroke-opacity:1;stroke:#146f14;stroke-linecap:butt;stroke-miterlimit:4;stroke-dasharray:none;stroke-width:1;fill:none" id="path3701-3" d="m 284.93511,333.61469 10e-6,33.999"/><text id="text6088" x="244.141" y="358.956" xml:space="preserve" style="font-size:40px;font-style:normal;font-weight:400;fill:#000;fill-opacity:1;stroke:none;font-family:arial;-inkscape-font-specification:arial"><tspan style="font-size:16px" id="tspan6090" x="244.141" y="358.956">X</tspan></text><text id="text6088-7" x="279.788" y="383.929" xml:space="preserve" style="font-size:40px;font-style:normal;font-weight:400;fill:#000;fill-opacity:1;stroke:none;font-family:arial;-inkscape-font-specification:arial"><tspan style="font-size:16px" id="tspan6090-7" x="279.788" y="383.929">Y</tspan></text><text id="text6088-7-5" x="318.854" y="348.25" xml:space="preserve" style="font-size:40px;font-style:normal;font-weight:400;fill:#000;fill-opacity:1;stroke:none;font-family:arial;-inkscape-font-specification:arial"><tspan style="font-size:16px" id="tspan6090-7-5" x="318.854" y="348.25">Z</tspan></text><path id="path6144" d="m 357.03125,454.31531 a 23.828125,23.828125 0 1 1 -47.65625,0 23.828125,23.828125 0 1 1 47.65625,0 z" transform="matrix(0.10083494,0,0,0.10083494,332.84897,346.72344)" style="fill:#00f;fill-opacity:1;stroke:#000;stroke-width:9.91719723;stroke-linejoin:miter;stroke-miterlimit:4;stroke-opacity:1;stroke-dasharray:none;stroke-dashoffset:0"/><path id="path6144-3" d="m 357.03125,454.31531 a 23.828125,23.828125 0 1 1 -47.65625,0 23.828125,23.828125 0 1 1 47.65625,0 z" transform="matrix(0.10083494,0,0,0.10083494,332.34729,371.2285)" style="fill:#00f;fill-opacity:1;stroke:#000;stroke-width:9.91719723;stroke-linejoin:miter;stroke-miterlimit:4;stroke-opacity:1;stroke-dasharray:none;stroke-dashoffset:0"/><path id="path6144-3-6" d="m 357.03125,454.31531 a 23.828125,23.828125 0 1 1 -47.65625,0 23.828125,23.828125 0 1 1 47.65625,0 z" transform="matrix(0.10083494,0,0,0.10083494,325.31604,420.44725)" style="fill:#00f;fill-opacity:1;stroke:#000;stroke-width:9.91719723;stroke-linejoin:miter;stroke-miterlimit:4;stroke-opacity:1;stroke-dasharray:none;stroke-dashoffset:0"/><path id="path6144-3-2" d="m 357.03125,454.31531 a 23.828125,23.828125 0 1 1 -47.65625,0 23.828125,23.828125 0 1 1 47.65625,0 z" transform="matrix(0.10083494,0,0,0.10083494,319.06604,458.7285)" style="fill:#00f;fill-opacity:1;stroke:#000;stroke-width:9.91719723;stroke-linejoin:miter;stroke-miterlimit:4;stroke-opacity:1;stroke-dasharray:none;stroke-dashoffset:0"/><path id="path6144-3-0" d="m 357.03125,454.31531 a 23.828125,23.828125 0 1 1 -47.65625,0 23.828125,23.828125 0 1 1 47.65625,0 z" transform="matrix(0.10083494,0,0,0.10083494,296.40979,416.541)" style="fill:#00f;fill-opacity:1;stroke:#000;stroke-width:9.91719723;stroke-linejoin:miter;stroke-miterlimit:4;stroke-opacity:1;stroke-dasharray:none;stroke-dashoffset:0"/><path id="path6144-3-4" d="m 357.03125,454.31531 a 23.828125,23.828125 0 1 1 -47.65625,0 23.828125,23.828125 0 1 1 47.65625,0 z" transform="matrix(0.10083494,0,0,0.10083494,303.23236,385.93822)" style="fill:#00f;fill-opacity:1;stroke:#000;stroke-width:9.91719723;stroke-linejoin:miter;stroke-miterlimit:4;stroke-opacity:1;stroke-dasharray:none;stroke-dashoffset:0"/><path id="path6144-3-3" d="m 357.03125,454.31531 a 23.828125,23.828125 0 1 1 -47.65625,0 23.828125,23.828125 0 1 1 47.65625,0 z" transform="matrix(0.10083494,0,0,0.10083494,294.06604,404.82225)" style="fill:#00f;fill-opacity:1;stroke:#000;stroke-width:9.91719723;stroke-linejoin:miter;stroke-miterlimit:4;stroke-opacity:1;stroke-dasharray:none;stroke-dashoffset:0"/><path id="path6144-3-8" d="m 357.03125,454.31531 a 23.828125,23.828125 0 1 1 -47.65625,0 23.828125,23.828125 0 1 1 47.65625,0 z" transform="matrix(0.10083494,0,0,0.10083494,337.03479,396.2285)" style="fill:#00f;fill-opacity:1;stroke:#000;stroke-width:9.91719723;stroke-linejoin:miter;stroke-miterlimit:4;stroke-opacity:1;stroke-dasharray:none;stroke-dashoffset:0"/><path id="path6144-3-7" d="m 357.03125,454.31531 a 23.828125,23.828125 0 1 1 -47.65625,0 23.828125,23.828125 0 1 1 47.65625,0 z" transform="matrix(0.10083494,0,0,0.10083494,315.15979,367.07225)" style="fill:#00f;fill-opacity:1;stroke:#000;stroke-width:9.91719723;stroke-linejoin:miter;stroke-miterlimit:4;stroke-opacity:1;stroke-dasharray:none;stroke-dashoffset:0"/><path id="path6144-3-61" d="m 357.03125,454.31531 a 23.828125,23.828125 0 1 1 -47.65625,0 23.828125,23.828125 0 1 1 47.65625,0 z" transform="matrix(0.10083494,0,0,0.10083494,275.31604,362.63475)" style="fill:#00f;fill-opacity:1;stroke:#000;stroke-width:9.91719723;stroke-linejoin:miter;stroke-miterlimit:4;stroke-opacity:1;stroke-dasharray:none;stroke-dashoffset:0"/><path id="path6144-3-08" d="m 357.03125,454.31531 a 23.828125,23.828125 0 1 1 -47.65625,0 23.828125,23.828125 0 1 1 47.65625,0 z" transform="matrix(0.10083494,0,0,0.10083494,269.84729,399.3535)" style="fill:#00f;fill-opacity:1;stroke:#000;stroke-width:9.91719723;stroke-linejoin:miter;stroke-miterlimit:4;stroke-opacity:1;stroke-dasharray:none;stroke-dashoffset:0"/><path id="path6144-3-1" d="m 357.03125,454.31531 a 23.828125,23.828125 0 1 1 -47.65625,0 23.828125,23.828125 0 1 1 47.65625,0 z" transform="matrix(0.10083494,0,0,0.10083494,283.12854,438.416)" style="fill:#00f;fill-opacity:1;stroke:#000;stroke-width:9.91719723;stroke-linejoin:miter;stroke-miterlimit:4;stroke-opacity:1;stroke-dasharray:none;stroke-dashoffset:0"/><path id="path6144-3-28" d="m 357.03125,454.31531 a 23.828125,23.828125 0 1 1 -47.65625,0 23.828125,23.828125 0 1 1 47.65625,0 z" transform="matrix(0.10083494,0,0,0.10083494,283.12854,394.666)" style="fill:#00f;fill-opacity:1;stroke:#000;stroke-width:9.91719723;stroke-linejoin:miter;stroke-miterlimit:4;stroke-opacity:1;stroke-dasharray:none;stroke-dashoffset:0"/><path id="path6144-3-9" d="m 357.03125,454.31531 a 23.828125,23.828125 0 1 1 -47.65625,0 23.828125,23.828125 0 1 1 47.65625,0 z" transform="matrix(0.10083494,0,0,0.10083494,296.40979,355.6035)" style="fill:#00f;fill-opacity:1;stroke:#000;stroke-width:9.91719723;stroke-linejoin:miter;stroke-miterlimit:4;stroke-opacity:1;stroke-dasharray:none;stroke-dashoffset:0"/><path id="path6144-3-5" d="m 357.03125,454.31531 a 23.828125,23.828125 0 1 1 -47.65625,0 23.828125,23.828125 0 1 1 47.65625,0 z" transform="matrix(0.10083494,0,0,0.10083494,348.54098,373.23985)" style="fill:#00f;fill-opacity:1;stroke:#000;stroke-width:9.91719723;stroke-linejoin:miter;stroke-miterlimit:4;stroke-opacity:1;stroke-dasharray:none;stroke-dashoffset:0"/><path id="path6144-3-11" d="m 357.03125,454.31531 a 23.828125,23.828125 0 1 1 -47.65625,0 23.828125,23.828125 0 1 1 47.65625,0 z" transform="matrix(0.10083494,0,0,0.10083494,361.25354,399.3535)" style="fill:#00f;fill-opacity:1;stroke:#000;stroke-width:9.91719723;stroke-linejoin:miter;stroke-miterlimit:4;stroke-opacity:1;stroke-dasharray:none;stroke-dashoffset:0"/><path id="path6144-3-83" d="m 357.03125,454.31531 a 23.828125,23.828125 0 1 1 -47.65625,0 23.828125,23.828125 0 1 1 47.65625,0 z" transform="matrix(0.10083494,0,0,0.10083494,347.19104,421.2285)" style="fill:#00f;fill-opacity:1;stroke:#000;stroke-width:9.91719723;stroke-linejoin:miter;stroke-miterlimit:4;stroke-opacity:1;stroke-dasharray:none;stroke-dashoffset:0"/><path id="path6144-3-18" d="m 357.03125,454.31531 a 23.828125,23.828125 0 1 1 -47.65625,0 23.828125,23.828125 0 1 1 47.65625,0 z" transform="matrix(0.10083494,0,0,0.10083494,358.90979,453.25975)" style="fill:#00f;fill-opacity:1;stroke:#000;stroke-width:9.91719723;stroke-linejoin:miter;stroke-miterlimit:4;stroke-opacity:1;stroke-dasharray:none;stroke-dashoffset:0"/><path id="path6144-3-45" d="m 357.03125,454.31531 a 23.828125,23.828125 0 1 1 -47.65625,0 23.828125,23.828125 0 1 1 47.65625,0 z" transform="matrix(0.10083494,0,0,0.10083494,380.00354,429.82225)" style="fill:#00f;fill-opacity:1;stroke:#000;stroke-width:9.91719723;stroke-linejoin:miter;stroke-miterlimit:4;stroke-opacity:1;stroke-dasharray:none;stroke-dashoffset:0"/><path id="path6144-3-60" d="m 357.03125,454.31531 a 23.828125,23.828125 0 1 1 -47.65625,0 23.828125,23.828125 0 1 1 47.65625,0 z" transform="matrix(0.10083494,0,0,0.10083494,390.94104,374.3535)" style="fill:#00f;fill-opacity:1;stroke:#000;stroke-width:9.91719723;stroke-linejoin:miter;stroke-miterlimit:4;stroke-opacity:1;stroke-dasharray:none;stroke-dashoffset:0"/><path id="path6144-3-32" d="m 357.03125,454.31531 a 23.828125,23.828125 0 1 1 -47.65625,0 23.828125,23.828125 0 1 1 47.65625,0 z" transform="matrix(0.10083494,0,0,0.10083494,310.01185,334.81709)" style="fill:#00f;fill-opacity:1;stroke:#000;stroke-width:9.91719723;stroke-linejoin:miter;stroke-miterlimit:4;stroke-opacity:1;stroke-dasharray:none;stroke-dashoffset:0"/><path id="path6144-3-89" d="m 357.03125,454.31531 a 23.828125,23.828125 0 1 1 -47.65625,0 23.828125,23.828125 0 1 1 47.65625,0 z" transform="matrix(0.10083494,0,0,0.10083494,357.34729,365.75975)" style="fill:#00f;fill-opacity:1;stroke:#000;stroke-width:9.91719723;stroke-linejoin:miter;stroke-miterlimit:4;stroke-opacity:1;stroke-dasharray:none;stroke-dashoffset:0"/><path id="path6144-3-12" d="m 357.03125,454.31531 a 23.828125,23.828125 0 1 1 -47.65625,0 23.828125,23.828125 0 1 1 47.65625,0 z" transform="matrix(0.10083494,0,0,0.10083494,356.57277,350.98105)" style="fill:#00f;fill-opacity:1;stroke:#000;stroke-width:9.91719723;stroke-linejoin:miter;stroke-miterlimit:4;stroke-opacity:1;stroke-dasharray:none;stroke-dashoffset:0"/><text id="text6088-7-6" x="268.046" y="250.382" xml:space="preserve" style="font-size:40px;font-style:normal;font-weight:400;fill:#000;fill-opacity:1;stroke:none;font-family:arial;-inkscape-font-specification:arial"><tspan style="font-size:16px;text-align:center;text-anchor:middle" id="tspan6090-7-3" x="268.046" y="250.382">Left</tspan><tspan style="font-size:16px;text-align:center;text-anchor:middle" id="tspan8465" x="268.046" y="270.382">Imager</tspan></text><text id="text6088-7-6-1" x="176.948" y="297.099" xml:space="preserve" style="font-size:40px;font-style:normal;font-weight:400;fill:#000;fill-opacity:1;stroke:none;font-family:arial;-inkscape-font-specification:arial"><tspan style="font-size:16px;text-align:center;text-anchor:middle" id="tspan6090-7-3-8" x="176.948" y="297.099">Right</tspan><tspan style="font-size:16px;text-align:center;text-anchor:middle" id="tspan8463" x="176.948" y="317.099">Imager</tspan></text><text id="text6088-7-6-8" x="355.498" y="376.316" xml:space="preserve" style="font-size:40px;font-style:normal;font-weight:400;fill:#000;fill-opacity:1;stroke:none;font-family:arial;-inkscape-font-specification:arial"><tspan style="font-size:16px" id="tspan6090-7-3-2" x="355.498" y="376.316">Point Cloud</tspan></text><path style="fill:none;stroke:#323232;stroke-width:1;stroke-linecap:butt;stroke-linejoin:miter;stroke-miterlimit:4;stroke-opacity:1;stroke-dasharray:1,3;stroke-dashoffset:0;marker-mid:none;marker-end:url(#Arrow2Mend)" id="path7100" d="m 283.87636,333.58322 50.50373,94.02457"/></g></svg>